<?xml version="1.0" encoding="UTF-8" standalone="no"?>
<svg xmlns:rdf="http://www.w3.org/1999/02/22-rdf-syntax-ns#" xmlns="http://www.w3.org/2000/svg" height="359.6" width="373.5" version="1.1" xmlns:cc="http://creativecommons.org/ns#" xmlns:dc="http://purl.org/dc/elements/1.1/" viewBox="0 0 373.50001 359.5936">
 <g transform="translate(-48 -657.8)">
  <path style="fill-rule:evenodd" d="m130 130v135l105-9 105 9v-135h-210zm47.57 58.05c1.9 0 4.2 0.8 6.4 3 6 6 1 12 1 12l-2 2h-2v7l-9 9h-7v2l-2 2s-6 5-12-1-1-12-1-12l2-2h2l16-16v-2l2-2s2.344-1.953 5.566-1.953zm114.9 0c3.2 0 5.5 2 5.5 2l2 2v2l16 16h2l2 2s5 6-1 12-12 1-12 1l-2-2v-2h-7l-9-9v-7h-2l-2-2s-5-6 1-12c2.25-2.25 4.5-2.953 6.434-2.953zm-162.5 97v75l4-4h23l7 7v27h7l15-35v-4h18v5h7l10 8s0-3 14-3 14 3 14 3l12-8h5v-5h18v4l15 35h7v-27l7-7h23l4 4v-11h-49v-48h49v-16l-105 9-37.88-3.246-8.1 16.2-3 2-10 5h-2l-4-1-11 11s-7 6-13 0 0-13 0-13l11-11-1-4v-2l3.246-6.492-29.2-2.5z" transform="translate(0 552.4)"/>
  <path style="fill-rule:evenodd" d="m235 260c-4 0-115 10-115 10s-4 1-4 5 4 5 4 5 21.52 1.924 39.71 3.547l25.3-13.6 16 14-1.525 3.051c18.3 1.6 34.1 3 35.5 3 4 0 115-10 115-10s4-1 4-5-4-5-4-5-111-10-115-10zm0 7a8 8 0 0 1 8 8 8 8 0 0 1 -8 8 8 8 0 0 1 -8 -8 8 8 0 0 1 8 -8z" transform="translate(0 552.4)"/>
  <path style="fill-rule:evenodd" d="m190 420-15 15v15l15 15h90l15-15v-15l-15-15h-90zm45 14a15 8.5 0 0 1 15 8.5 15 8.5 0 0 1 -15 8.5 15 8.5 0 0 1 -15 -8.5 15 8.5 0 0 1 15 -8.5zm0 6a4 2.5 0 0 0 -4 2.5 4 2.5 0 0 0 4 2.5 4 2.5 0 0 0 4 -2.5 4 2.5 0 0 0 -4 -2.5z" transform="translate(0 552.4)"/>
  <path style="fill-rule:evenodd;stroke:#000;stroke-width:1px" d="m192 355v61h8v-61h-8zm78 0v61h8v-61h-8zm-82 4.7-13 30.3v39l13-13v-56.33zm94 0v56.33l13 13v-39l-13-30.33z" transform="translate(0 552.4)"/>
  <path style="fill-rule:evenodd;stroke:#000;stroke-width:1px" d="m225 922.4v46h20v-46s-0.00001-5-10-5-10 5-10 5z"/>
  <path style="fill-rule:evenodd;stroke:#000;stroke-width:1px" d="m249 968.4h14v-56h-1l-13 9z"/>
  <path style="fill-rule:evenodd;stroke:#000;stroke-width:1px" d="m221 968.4v-46l-12-10h-2v56z"/>
  <path style="fill-rule:evenodd;stroke:#000;stroke-width:1px" d="m344 757.4v30h26l5-5v-20l-5-5z"/>
  <path style="fill-rule:evenodd;stroke:#000;stroke-width:1px" d="m344 872.4v20h26v-20z"/>
  <path style="fill-rule:evenodd;stroke:#000;stroke-width:1px" d="m374 872.4v20h21l5-5v-10l-5-5z"/>
  <path style="fill-rule:evenodd;stroke:#000;stroke-width:1px" d="m353 791.4h10v77h-10z"/>
  <path style="fill-rule:evenodd;stroke:#000;stroke-width:1px" d="m415 969.4-24.14-73.65h5.789l3.352-3.352 20 60v10 10z"/>
  <path style="fill-rule:evenodd;stroke:#000;stroke-width:1px" d="m387 868.4h9l1 1v-38h-10z"/>
  <path style="fill-rule:evenodd;stroke:#000;stroke-width:1px" d="m387 827.4v-12l2-2h26v14 4h-14v-4z"/>
  <path style="fill-rule:evenodd;stroke:#000;stroke-width:1px" d="m353 753.4h12l56-81v-13l-3-1z"/>
  <path style="fill-rule:evenodd;stroke:#000;stroke-width:1px" d="m125.5 757.4v30h-26l-5-5v-20l5-5z"/>
  <path style="fill-rule:evenodd;stroke:#000;stroke-width:1px" d="m125.5 872.4v20h-26v-20z"/>
  <path style="fill-rule:evenodd;stroke:#000;stroke-width:1px" d="m95.5 872.4v20h-21l-5-5v-10l5-5z"/>
  <path style="fill-rule:evenodd;stroke:#000;stroke-width:1px" d="m116.5 791.4h-10v77h10z"/>
  <path style="fill-rule:evenodd;stroke:#000;stroke-width:1px" d="m54.5 969.4 24.14-73.65h-5.789l-3.352-3.352-20 60v10 10z"/>
  <path style="fill-rule:evenodd;stroke:#000;stroke-width:1px" d="m82.5 868.4h-9l-1 1v-38h10z"/>
  <path style="fill-rule:evenodd;stroke:#000;stroke-width:1px" d="m82.5 827.4v-12l-2-2h-26v14 4h14v-4z"/>
  <path style="fill-rule:evenodd;stroke:#000;stroke-width:1px" d="m116.5 753.4h-12l-56-81v-13l3-1z"/>
  <path style="fill-rule:evenodd;stroke:#000;stroke-width:1px" d="m210 678.4h50v-4h-5l-2-1h-11l-2 1h-10l-2-1h-11l-2 1h-5z"/>
  <path style="fill-rule:evenodd;stroke:#000;stroke-width:1px" d="m315 360-5 5v45s0 15 15 15 15-15 15-15v-45l-5-5h-20zm5 20h10v25s0 5-5 5-5-5-5-5v-25z" transform="translate(0 552.4)"/>
  <path style="fill-rule:evenodd;stroke:#000;stroke-width:1px" d="m135 912.4-5 5v45s0 15 15 15 15-15 15-15v-45l-5-5h-20zm5 20h10v25s0 5-5 5-5-5-5-5v-25z"/>
  <path style="fill-rule:evenodd;stroke:#000;stroke-width:1px" d="m295 305v40h10v-40h-10zm14 0v40h31v-40h-31z" transform="translate(0 552.4)"/>
  <path style="fill-rule:evenodd" d="m185 275-20 10-5 10 15 15 10-5 10-20-10-10zm-1 4 7 7-9 16-6 3-11-11 3-6 16-9z" transform="translate(0 552.4)"/>
  <path style="fill-rule:evenodd;stroke:#000;stroke-width:1px" d="m161 856.4 5 5-11 11s-3 2-5 0 0-5 0-5z"/>
  <path style="fill-rule:evenodd" d="m178 746.5c-1.6-0.1-3 0.9-3 0.9l-1 1 5 5 1-1s2-3 0-5c-0.625-0.625-1.349-0.8599-2.047-0.8867zm-8 5.9l-10 10 5 5 10-10-5-5zm-14 14-1 1s-2 3 0 5 5 0 5 0l1-1-5-5z"/>
  <path style="fill-rule:evenodd" d="m160 762.4 7 7h3l7-7v-3l-7-7z"/>
  <path style="fill-rule:evenodd;stroke:#000;stroke-width:1px" d="m292 746.5c1.536-0.0591 2.953 0.8867 2.953 0.8867l1 1-5 5-1-1s-2-3 0-5c0.625-0.625 1.349-0.8599 2.047-0.8867zm7.953 5.887 10 10-5 5-10-10 5-5zm14 14 1 1s2 3 0 5-5 0-5 0l-1-1 5-5z"/>
  <path style="fill-rule:evenodd;stroke:#000;stroke-width:1px" d="m310 762.4-7 7h-3l-7-7v-3l7-7z"/>
  <path style="fill-rule:evenodd" d="m344 682.4v35h16v-35z"/>
  <path style="fill-rule:evenodd" d="m110 682.4v35h16v-35z"/>
 </g>
</svg>
